<?xml version="1.0" encoding="utf-8"?>
<!-- Generator: Adobe Illustrator 28.7.1, SVG Export Plug-In . SVG Version: 9.03 Build 54978)  -->
<svg version="1.0" id="Capa_1" xmlns="http://www.w3.org/2000/svg" xmlns:xlink="http://www.w3.org/1999/xlink" x="0px" y="0px"
	 viewBox="0 0 1080 167.3" style="enable-background:new 0 0 1080 167.3;" xml:space="preserve">
<style type="text/css">
	.st0{fill:#1D1D1B;}
</style>
<path d="M723.5,137.1c0-7.7,5.7-12.7,12.6-12.7c6.9,0,12.6,5.1,12.6,12.7c0,7.7-5.7,12.7-12.6,12.7
	C729.2,149.9,723.5,144.5,723.5,137.1z"/>
<g>
	<path class="st0" d="M64.9,66c-24.4,0-42.3,17.4-42.3,41.8c0,24.3,17.8,42,45.2,42c14.1,0,25.6-4.6,32.9-13.3l-10.3-11.8
		c-5.8,6-13,8.9-22.2,8.9c-14.2,0-24.2-7.7-26.5-19.6h64.2c0.1-1.8,0.3-4.1,0.3-5.7C106.2,82.6,89.2,66,64.9,66z M41.6,101.2
		c1.8-11.9,10.7-19.9,23.3-19.9c12.6,0,21.6,8.1,23.1,19.9H41.6z"/>
	<polygon class="st0" points="170.9,65.8 143.6,127.5 118.2,65.8 97.8,65.8 134.5,149.7 153.1,149.9 189.2,65.8 	"/>
	<path class="st0" d="M221.9,66c-24.3,0-42.3,17.4-42.3,41.8c0,24.3,17.8,42,45.2,42c14.1,0,25.6-4.6,32.9-13.3l-10.3-11.8
		c-5.8,6-13,8.9-22.2,8.9c-14.2,0-24.2-7.7-26.5-19.6h64.2c0.1-1.8,0.3-4.1,0.3-5.7C263.2,82.6,246.2,66,221.9,66z M198.6,101.2
		c1.8-11.9,10.7-19.9,23.3-19.9c12.6,0,21.6,8.1,23.1,19.9H198.6z"/>
	<path class="st0" d="M316.5,65.9c-11.9,0-21.9,4-28.2,11.5V65.8h-18.2v84.1h19.2v-42.6c0-16.4,9.2-24.7,22.8-24.7
		c12.3,0,19.5,7,19.5,21.6v45.6h19.1v-48.1h0C350.7,77.1,336.2,65.9,316.5,65.9z"/>
	<path class="st0" d="M396.7,133.9c-7.3,0-11.3-4.3-11.3-12.3V80.4h21.9V65.8h-21.9v-17h-19.1v17h-13.3l-0.2,14.6h13.5v41.7
		c0,18.1,10.3,27.6,28.2,27.6c6.9,0,13.8-1.8,18.4-5.5l0,0l-5.4-13.6C404.5,132.9,400.7,133.9,396.7,133.9z"/>
	<path class="st0" d="M451,65.9c-25.1,0-43.5,17.3-43.5,41.8c0,24.5,18.1,42,43.5,42c25.4,0,43.7-17.5,43.7-42
		C494.7,83.2,476.2,65.9,451,65.9z M451,133.3c-13.8,0-24.2-10-24.2-25.6c0-15.6,10.3-25.6,24.2-25.6s24.4,9.9,24.4,25.6
		C475.4,123.4,464.8,133.3,451,133.3z"/>
	<path class="st0" d="M557.9,134c-1.7,2.3-3.7,4.4-6.1,6.3c-2.3,2-4.9,3.6-7.8,4.9c-2.9,1.3-6,1.9-9.5,1.9c-6.2,0-10.9-1.8-13.9-5.5
		c-3-3.7-4.5-8.1-4.5-13.4c0-3.5,0.4-7.5,1.2-11.7c0.8-4.3,2-8.6,3.6-13c1.6-4.4,3.5-8.7,5.7-12.8c2.2-4.2,4.7-7.8,7.6-11.1
		c2.9-3.2,6-5.8,9.5-7.8c3.4-2,7.1-2.9,11-2.9c2.4,0,4.4,0.4,5.8,1.1c1.4,0.7,2.1,2.1,2.1,4c0,1.5-0.2,2.7-0.7,3.6
		c-0.5,0.9-1.1,1.7-1.8,2.5c-0.7,0.7-1.3,1.6-1.7,2.5c-0.5,0.9-0.7,2.1-0.7,3.6c0,1.2,0.4,2.3,1.3,3.2c0.9,0.9,2.4,1.4,4.6,1.4
		c2.2,0,4.3-0.6,6.3-1.8c2-1.2,3-3.8,3-7.9c0-2.8-0.5-5.2-1.6-7.1c-1-1.9-2.4-3.4-3.9-4.5c-1.6-1.1-3.4-1.9-5.4-2.4
		c-2-0.5-4.1-0.7-6.1-0.7c-6.7,0-13.2,1.7-19.5,5.2c-6.3,3.5-11.9,8-16.8,13.4c-4.9,5.4-8.8,11.4-11.8,18
		c-2.9,6.5-4.4,12.9-4.4,19.2c0,3.8,0.7,7.3,1.9,10.6c1.3,3.3,3.1,6.2,5.5,8.7c2.4,2.5,5.4,4.5,8.9,6c3.6,1.5,7.6,2.2,12.1,2.2
		c4.3,0,8.1-0.6,11.6-1.8c3.4-1.2,6.5-2.8,9.1-4.8c2.6-1.9,5-4.1,7-6.5l0,0c2-2.4,3.8-4.7,5.2-7.1l-2.6-1.5
		C561,129.7,559.6,131.7,557.9,134z"/>
	<path class="st0" d="M601.2,135c-1.1,1.8-2.5,3.6-4,5.4c-1.6,1.8-3.3,3.3-5.2,4.7c-1.9,1.4-3.8,2-5.8,2c-1.7,0-3-0.5-3.8-1.6
		c-0.9-1-1.3-2.3-1.3-3.8c0-1.7,0.3-3.5,0.9-5.4c0.6-1.9,1.2-3.8,1.8-5.6l0,0L627.5,7.8h-29.2l-0.7,2.6h16.3L573,124.9
		c-0.7,2.1-1.5,4.4-2.2,6.9c-0.7,2.5-1.1,4.8-1.1,6.9c0,3.9,1.2,6.7,3.6,8.3c2.4,1.7,5.6,2.5,9.6,2.5c3.7,0,6.9-0.7,9.5-2.2
		c2.7-1.5,5-3.2,6.8-5.2c1.8-2,3.3-4,4.3-6.1c1-2,1.8-3.5,2.3-4.5l-2.2-0.9C603.1,131.7,602.3,133.1,601.2,135z"/>
	<path class="st0" d="M653.7,33.9c2.4,0,4.5-0.8,6.1-2.5c1.7-1.6,2.5-3.7,2.5-6.1s-0.8-4.5-2.5-6.1c-1.6-1.7-3.7-2.5-6.1-2.5
		c-2.4,0-4.5,0.8-6.1,2.5c-1.7,1.6-2.5,3.7-2.5,6.1s0.8,4.5,2.5,6.1C649.2,33.1,651.3,33.9,653.7,33.9z"/>
	<polygon class="st0" points="617.4,69.4 617.4,69.4 617.4,69.4 	"/>
	<path class="st0" d="M643.1,135c-1.1,1.8-2.5,3.6-4,5.4c-1.6,1.8-3.3,3.3-5.2,4.7c-1.9,1.4-3.8,2-5.8,2c-1.7,0-3-0.5-3.8-1.6
		c-0.9-1-1.3-2.3-1.3-3.8c0-1.7,0.3-3.5,0.9-5.4c0.6-1.9,1.2-3.8,1.8-5.6l21.7-65h-29.2l-0.7,3.6l17.6,0.4l-20.2,55
		c-0.7,2.1-1.5,4.4-2.2,6.9c-0.7,2.5-1.1,4.8-1.1,6.9c0,3.9,1.2,6.7,3.6,8.3c2.4,1.7,5.6,2.5,9.6,2.5c3.7,0,6.9-0.7,9.5-2.2
		c2.7-1.5,5-3.2,6.8-5.2c1.8-2,3.3-4,4.3-6.1c1-2,1.8-3.5,2.3-4.5l-2.2-0.9C645,131.7,644.2,133.1,643.1,135z"/>
	<path class="st0" d="M716.7,69.3c-1.6-1.1-3.4-1.9-5.4-2.4c-2-0.5-4.1-0.7-6.1-0.7c-6.7,0-13.2,1.7-19.6,5.2
		c-6.3,3.5-11.9,8-16.8,13.4c-4.9,5.4-8.8,11.4-11.8,18c-2.9,6.5-4.4,12.9-4.4,19.2c0,3.8,0.7,7.3,1.9,10.6c1.3,3.3,3.1,6.2,5.5,8.7
		c2.4,2.5,5.4,4.5,8.9,6c3.5,1.5,7.6,2.2,12.1,2.2c4.3,0,8.1-0.6,11.6-1.8c3.4-1.2,6.5-2.8,9.1-4.8c2.6-1.9,5-4.1,7-6.5l0,0
		c2-2.4,3.8-4.7,5.2-7.1l-2.6-1.5c-1.1,1.8-2.5,3.9-4.2,6.1c-1.7,2.3-3.7,4.4-6.1,6.3c-2.3,2-4.9,3.6-7.8,4.9
		c-2.9,1.3-6,1.9-9.5,1.9c-6.2,0-10.9-1.8-13.9-5.5c-3-3.7-4.5-8.1-4.5-13.4c0-3.5,0.4-7.5,1.2-11.7c0.8-4.3,2-8.6,3.6-13
		c1.6-4.4,3.5-8.7,5.7-12.8c2.2-4.2,4.7-7.8,7.6-11.1c2.9-3.2,6-5.8,9.5-7.8c3.4-2,7.1-2.9,11-2.9c2.4,0,4.4,0.4,5.8,1.1
		c1.4,0.7,2.1,2.1,2.1,4c0,1.5-0.2,2.7-0.7,3.6c-0.5,0.9-1.1,1.7-1.8,2.5c-0.7,0.7-1.3,1.6-1.7,2.5c-0.5,0.9-0.7,2.1-0.7,3.6
		c0,1.2,0.4,2.3,1.3,3.2c0.9,0.9,2.4,1.4,4.6,1.4c2.2,0,4.3-0.6,6.3-1.8c2-1.2,3-3.8,3-7.9c0-2.8-0.5-5.2-1.6-7.1
		C719.6,71.9,718.3,70.4,716.7,69.3z"/>
	<polygon class="st0" points="747.5,107.9 747.5,107.9 747.5,107.9 	"/>
	<path class="st0" d="M791.6,133.5c-14.1,0-24.8-9.8-24.8-25.6c0-15.8,10.7-25.6,24.8-25.6c8.1,0,15.5,3.5,20.4,11.3l14.7-8.6
		c-6.3-12.4-19-19-34.9-19c-25.9,0-44.3,17.3-44.3,41.8c0,24.5,18.4,41.9,44.3,41.9c15.9,0,28.6-6.9,34.9-19.1l-14.7-8.6
		C807.1,129.9,799.8,133.5,791.6,133.5z"/>
	<path class="st0" d="M867.3,66.1c-25.1,0-43.5,17.3-43.5,41.8c0,24.5,18.1,42,43.5,42c25.4,0,43.7-17.5,43.7-42
		C911,83.4,892.4,66.1,867.3,66.1z M867.3,133.5c-13.8,0-24.2-10-24.2-25.6c0-15.6,10.3-25.6,24.2-25.6s24.3,9.9,24.3,25.6
		C891.7,123.5,881.1,133.5,867.3,133.5z"/>
	<path class="st0" d="M1054.6,101.9c0-24.7-13.8-35.8-33.5-35.8c-13,0-24.1,5.2-30.6,13.6c-5.7-9.2-15.6-13.6-27.6-13.6
		c-11.2,0-20.7,4-26.8,11.3V65.8h-18.2l0.2,84.1h19v-42.6c0-16.2,8.6-24.5,21.3-24.5c11.6,0,18.4,7,18.4,21.6v45.5h19.1v-42.6
		c0-16.2,8.7-24.5,21.3-24.5c11.6,0,18.4,7,18.4,21.6v45.5h19.1L1054.6,101.9L1054.6,101.9z"/>
</g>
</svg>
